<svg xmlns="http://www.w3.org/2000/svg">
<symbol id="fb" viewBox="0 0 618 618"><path d="M615 309a306 306 0 1 0-612 0 306 306 0 0 0 612 0zm-584.2 0a278.2 278.2 0 1 1 556.4 0 278.2 278.2 0 0 1-556.4 0z"/><path d="M320.7 485.6V309H379l9.2-58.5h-67.5V221c0-15.2 5-29.8 27-29.8h43.8v-58.4h-62.2c-52.3 0-66.6 34.4-66.6 82.1v35.4h-35.9V309h36v176.6z"/></symbol>
<symbol id="insta" viewBox="0 0 480 480"><path d="M240 0a240 240 0 1 0 0 480 240 240 0 0 0 0-480zm0 464a224 224 0 1 1 0-448 224 224 0 0 1 0 448zm0 0"/><path d="M344 96H136c-22 0-40 18-40 40v208c0 22 18 40 40 40h208c22 0 40-18 40-40V136c0-22-18-40-40-40zm24 248a24 24 0 0 1-24 24H136a24 24 0 0 1-24-24V136a24 24 0 0 1 24-24h208a24 24 0 0 1 24 24zm0 0"/><path d="M240 160a80 80 0 1 0 0 160 80 80 0 0 0 0-160zm0 144a64 64 0 1 1 0-128 64 64 0 0 1 0 128zm0 0M328 128a24 24 0 1 0 0 48 24 24 0 0 0 0-48zm0 32a8 8 0 1 1 0-16 8 8 0 0 1 0 16zm0 0"/></symbol>
<symbol id="list" viewBox="0 0 60.1 60.1"><path d="M57.1 51.9H17a3 3 0 1 1 0-6h40.2a3 3 0 0 1 0 6zM57.1 33H17a3 3 0 1 1 0-6h40.2a3 3 0 0 1 0 6zM57.1 14.2H17a3 3 0 1 1 0-6h40.2a3 3 0 0 1 0 6z"/><circle cx="4" cy="11.5" r="4"/><circle cx="4" cy="30.1" r="4"/><circle cx="4" cy="48.7" r="4"/></symbol>
<symbol id="loop" viewBox="0 0 31.2 31.2"><path d="M30.2 28.5L23 21.3a12.6 12.6 0 1 0-1.7 1.7l7.2 7.2a1.3 1.3 0 0 0 1.7-1.7zm-17-5.1a10.1 10.1 0 1 1 10.2-10.1 10.1 10.1 0 0 1-10.1 10z"/></symbol>
<symbol id="p_holder" viewBox="0 0 512 512"><path d="M256 0a180.2 180.2 0 0 0-153.1 274.7l142.9 230.2a15 15 0 0 0 12.7 7.1h.1a15 15 0 0 0 12.8-7.3l139.2-232.5A180.2 180.2 0 0 0 256 0zm128.9 256.8L258.3 468.2l-130-209.4A149.8 149.8 0 0 1 256 29.8a150.4 150.4 0 0 1 128.9 227z"/><path d="M256 90a90.1 90.1 0 1 0 .2 180.2A90.1 90.1 0 0 0 256 90zm0 150.2a60.2 60.2 0 1 1 0-120.5 60.2 60.2 0 0 1 0 120.5z"/></symbol>
<symbol id="star-act" viewBox="0 0 20 19"><path fill="#7ed321" d="M10 0l2.4 7.3H20l-6.2 4.4 2.4 7.3-6.2-4.5L3.8 19l2.4-7.3L0 7.3h7.7z"/></symbol>
<symbol id="star-dis" viewBox="0 0 20 19"><path fill="#9b9b9b" d="M10 0l2.4 7.3H20l-6.2 4.4 2.4 7.3-6.2-4.5L3.8 19l2.4-7.3L0 7.3h7.7z"/></symbol>
<symbol id="tg" viewBox="0 0 480 480"><path d="M240 0a240 240 0 1 0 0 480 240 240 0 0 0 0-480zm0 464a224 224 0 1 1 0-448 224 224 0 0 1 0 448z"/><path d="M95.3 234.6l69.1 25.8 26.8 86a8.1 8.1 0 0 0 13 4l38.4-31.4a11.5 11.5 0 0 1 14-.4l69.5 50.4a8.2 8.2 0 0 0 12.8-5l51-244.8a8.2 8.2 0 0 0-11-9.2L95.2 219.4a8.2 8.2 0 0 0 .1 15.2zm91.6 12.1L322 163.5a2.4 2.4 0 0 1 2.8 3.7L213.3 271a23.1 23.1 0 0 0-7.2 13.8l-3.7 28.1a3.5 3.5 0 0 1-6.9.5L181 262a13.6 13.6 0 0 1 6-15.3z"/></symbol>
<symbol id="up" viewBox="0 0 293 171"><path d="M286 138L153 5a9 9 0 0 0-13 0L7 138a9 9 0 0 0 0 13l14 15a9 9 0 0 0 13 0L147 53l112 113a9 9 0 0 0 13 0l14-15a9 9 0 0 0 0-13z"/></symbol>
<symbol id="user" viewBox="0 0 482.9 482.9"><path d="M239.7 260.2h3.2c29.3-.5 53-10.8 70.5-30.5 38.5-43.4 32.1-117.8 31.4-124.9-2.5-53.3-27.7-78.8-48.5-90.7A111.2 111.2 0 0 0 242.5 0H240.8c-11.1 0-32.9 1.8-53.8 13.7-21 11.9-46.6 37.4-49.1 91.1-.7 7.1-7.1 81.5 31.4 124.9 17.4 19.7 41.1 30 70.4 30.5zm-75.1-152.9l.1-.8c3.3-71.7 54.2-79.4 76-79.4H241.9c27 .6 72.9 11.6 76 79.4l.1.8c.1.7 7.1 68.7-24.7 104.5-12.6 14.2-29.4 21.2-51.5 21.4h-1c-22-.2-38.9-7.2-51.4-21.4-31.7-35.6-24.9-103.9-24.8-104.5z"/><path d="M446.8 383.6v-.3l-.1-2.5c-.6-19.8-1.9-66.1-45.3-80.9l-1-.3a288.5 288.5 0 0 1-83-37.8 13.5 13.5 0 1 0-15.5 22.1c1.7 1.2 41.5 28.9 91.3 41.7 23.3 8.3 25.9 33.2 26.6 56l.1 2.5c.1 9-.5 22.9-2.1 30.9-16.2 9.2-79.7 41-176.3 41-96.2 0-160.1-31.9-176.4-41.1-1.6-8-2.3-21.9-2.1-30.9l.1-2.5c.7-22.8 3.3-47.7 26.6-56 49.8-12.8 89.6-40.6 91.3-41.7a13.5 13.5 0 1 0-15.5-22.1c-.4.3-37.7 26.3-83 37.8l-1 .3c-43.4 14.9-44.7 61.2-45.3 80.9l-.1 2.5v.3c-.1 5.2-.2 31.9 5.1 45.3 1 2.6 2.8 4.8 5.2 6.3 3 2 74.9 47.8 195.2 47.8s192.2-45.9 195.2-47.8c2.3-1.5 4.2-3.7 5.2-6.3 5-13.3 4.9-40 4.8-45.2z"/></symbol>
</svg>