<svg version="1.0" xmlns="http://www.w3.org/2000/svg" width="120" height="120" viewBox="0 0 90 90"><path d="M25.7 1.7c-.2.5-.3 4.8-.1 9.8.1 6.8-.2 9.4-1.3 10.7-1.3 1.4-.9 1.4 2.3-.3 7.6-3.8 16.4-1.7 21.4 5.3l2.8 3.8 1.8-2.7c2.3-3.7 5.2-6 8.9-7.3l3-1-.3-9.5-.3-9.5H45c-10.4 0-19.1.3-19.3.7zm41.1 18c.7.3 1.6.2 1.9-.1.4-.3-.2-.6-1.3-.5-1.1 0-1.4.3-.6.6zm3.2-.3c0 .2.7.7 1.6 1 .8.3 1.2.2.9-.4-.6-1-2.5-1.4-2.5-.6zm4 1c0 .3.9 1 2 1.6 1.1.6 2 .8 2 .6 0-.3-.9-1-2-1.6-1.1-.6-2-.8-2-.6zm-53.4 4.3c-.4.5-4.9.8-9.9.9H1.5l-.3 19.2c-.1 12.5.1 19.2.8 19.3.5.1 6.1.2 12.3.2l11.2.2v24l19.3.3 19.3.2-.2-9.4c-.1-5.1.2-10 .7-10.7.8-1.3-1.5.4-10.6 8l-3.5 2.9-14-12.2C20.1 53.3 16.8 48.5 16.7 39c0-4.5.6-6.8 2.7-10.4 2.5-4.3 2.9-5.6 1.2-3.9zm60.4 1c0 .1.9 2 2.1 4.2 5.1 9.8 1.3 21.2-10.2 31.1-3.8 3.3-6.5 6-6 6 .4 0 1.4-.6 2-1.4.9-1.1 3.4-1.4 9.7-1.2 4.7.1 8.8-.2 9.1-.8.7-1.1 1-37.6.3-37.7-1.3-.3-7-.5-7-.2z"/></svg>