<svg height="640" viewBox="0 0 480 480" width="640" xmlns="http://www.w3.org/2000/svg"><path d="M240 0a240 240 0 1 0 0 480 240 240 0 0 0 0-480zm0 464a224 224 0 1 1 0-448 224 224 0 0 1 0 448zm0 0"/><path d="M344 96H136c-22 0-40 18-40 40v208c0 22 18 40 40 40h208c22 0 40-18 40-40V136c0-22-18-40-40-40zm24 248a24 24 0 0 1-24 24H136a24 24 0 0 1-24-24V136a24 24 0 0 1 24-24h208a24 24 0 0 1 24 24zm0 0"/><path d="M240 160a80 80 0 1 0 0 160 80 80 0 0 0 0-160zm0 144a64 64 0 1 1 0-128 64 64 0 0 1 0 128zm88-176a24 24 0 1 0 0 48 24 24 0 0 0 0-48zm0 32a8 8 0 1 1 0-16 8 8 0 0 1 0 16zm0 0"/></svg>