<svg data-name="Слой 1" xmlns="http://www.w3.org/2000/svg" viewBox="0 0 480 480"><path d="M240 0a240 240 0 1 0 0 480 240 240 0 0 0 0-480zm0 464a224 224 0 1 1 0-448 224 224 0 0 1 0 448z"/><path d="M95.3 234.6l69.1 25.8 26.8 86a8.1 8.1 0 0 0 13 4l38.4-31.4a11.5 11.5 0 0 1 14-.4l69.5 50.4a8.2 8.2 0 0 0 12.8-5l51-244.8a8.2 8.2 0 0 0-11-9.2L95.2 219.4a8.2 8.2 0 0 0 .1 15.2zm91.6 12.1L322 163.5a2.4 2.4 0 0 1 2.8 3.7L213.3 271a23.1 23.1 0 0 0-7.2 13.8l-3.7 28.1a3.5 3.5 0 0 1-6.9.5L181 262a13.6 13.6 0 0 1 6-15.3z"/></svg>